<?xml version="1.0" encoding="utf-8"?>
<!-- Generator: Adobe Illustrator 18.1.1, SVG Export Plug-In . SVG Version: 6.00 Build 0)  -->
<svg version="1.1" id="Layer_1" xmlns="http://www.w3.org/2000/svg" xmlns:xlink="http://www.w3.org/1999/xlink" x="0px" y="0px"
	 viewBox="0 0 117 93.2" enable-background="new 0 0 117 93.2" xml:space="preserve">
<path d="M8.3,27.4c3.8,3.8,7.6,7.6,11.5,11.5c14-12.4,30.4-17.1,49.1-14c-0.2,0.8-0.3,1.4-0.4,2c-0.2,0.6-0.4,1.2-0.6,2
	c-18.7-2.8-34.8,2.4-48,15.7C14.1,38.7,8.4,33,2.7,27.3C30.4-3.3,83.2-5.8,113.9,27.2c-5.7,5.7-11.4,11.4-17.3,17.3
	C90.9,38.6,84.1,33.9,75.9,31c0.2-0.7,0.4-1.4,0.5-2c0.2-0.6,0.3-1.2,0.6-2.1c3.3,1.5,6.4,2.9,9.7,4.4c2.7-4.6,5.3-9.2,8-13.8
	C71.2,2.6,33.3,3.2,8.3,27.4z"/>
<path d="M72.8,18.7c1.2,0.3,2.4,0.6,3.7,1c-0.1,0.6-0.2,1.1-0.3,1.6c-4.6,17.2-9.2,34.5-13.8,51.7c-0.3,1.2-0.2,1.9,0.7,2.8
	c2.3,2.2,2.6,5.5,1,8.2c-1.5,2.6-4.6,3.9-7.5,3.1c-3-0.8-5.1-3.3-5.2-6.3c-0.1-3.1,1.7-6,4.7-6.7c1.6-0.4,2-1.3,2.4-2.6
	c4.5-17.1,9.1-34.1,13.7-51.2C72.5,19.8,72.7,19.3,72.8,18.7z M58.2,83.2c1.4,0.1,2.7-1,2.8-2.5c0.1-1.6-1-2.9-2.5-2.9
	c-1.5-0.1-2.7,1-2.8,2.5C55.5,81.8,56.6,83.2,58.2,83.2z"/>
<path fill="#FFFFFF" d="M58.2,83.2c-1.5-0.1-2.7-1.4-2.5-2.9c0.1-1.4,1.4-2.5,2.8-2.5c1.5,0.1,2.7,1.4,2.5,2.9
	C60.8,82.2,59.6,83.3,58.2,83.2z"/>
</svg>
