<?xml version="1.0" encoding="utf-8"?>
<!-- Generator: Adobe Illustrator 18.1.1, SVG Export Plug-In . SVG Version: 6.00 Build 0)  -->
<svg version="1.1" id="Layer_1" xmlns="http://www.w3.org/2000/svg" xmlns:xlink="http://www.w3.org/1999/xlink" x="0px" y="0px"
	 viewBox="0 0 623 612" enable-background="new 0 0 623 612" xml:space="preserve">
<path d="M21,596c0-16-0.1-31.3,0.1-46.6c0-1.6,1.1-3.5,2.1-4.9c6.8-9,13.8-17.9,20.7-26.9c7.6-9.9,11.8-20.8,11.7-33.7
	c-0.2-21.5,0.8-43,0.8-64.4c0.2-65.2,0.2-130.3,0.4-195.5c0.2-41,0.6-82,1.2-122.9c0.2-15,4.8-29.1,9.7-43.2
	c4.1-11.6,8-23.3,12.3-34.8c0.5-1.3,2.6-2.1,4-3.1c0.4-0.2,1,0,1.5,0c97,0,194,0,291,0c1.3,0,2.6,0,4.5,0c2,10.2,3.9,20.3,5.9,30.3
	c9.7,50.7,19.5,101.3,29.1,152c0.6,3.3,2,4.8,5.4,5.9c12.9,4.5,25.7,9,38.2,14.5c23.6,10.3,35.6,29.7,38,54.5
	c2.1,20.8,2.8,41.8,3.3,62.8c0.7,34.1,0.3,68.3,1.3,102.4c0.2,7.2,4.6,14.4,7.1,21.5c0.5,1.4,1.4,2.6,2.1,3.9
	c4.1,7.5,4.1,7.3,12.7,6.2c3.6-0.5,5.1-1.4,5.1-5.5c-0.1-91-0.1-182-0.1-273c0-1,0-2,0-3.5c-7.4-1.7-14.9-3.2-22.2-5.3
	c-7.6-2.2-15.3-4.5-22.6-7.8c-8.3-3.8-11-9.9-7.1-18.1c5.1-10.6,11.4-20.6,17.7-30.6c2.1-3.3,2.5-6.1,1.8-9.7
	c-6.6-32.6-13-65.3-19.5-97.9c-0.2-0.8-0.2-1.6-0.3-2.9c11.7,0,23.1-0.1,34.6,0.1c1.2,0,2.7,1.2,3.7,2.2
	c26.5,26.3,52.9,52.6,79.2,79.1c1.6,1.6,2.3,4.7,2.3,7.1c0.1,110,0.1,220,0.1,330c0,15.2-0.1,30.3,0.1,45.5c0,3.3-0.9,5.6-3.3,7.8
	c-9.4,8.7-18.3,18-28.1,26.3c-31.9,27-66.1,22.2-96.2-1.1c-17.2-13.3-24.6-32.2-27.5-53.1c-3.2-22.6-0.5-45.2-0.7-67.8
	c-0.3-30.1-0.7-60.3-1.8-90.4c-0.2-5.4-3.6-11-6.5-15.9c-3.5-6-7.9-11.5-12.2-17.1c-0.7-1-2.8-1.8-3.9-1.4
	c-4.9,1.5-9.6,3.5-14.8,5.5c6.8,24.7,7.1,49.7,5.6,74.6c-1.6,26.6-4.7,53.1-6.2,79.7c-2.2,38.4,2.5,75.5,23.4,109
	c3.4,5.5,7.7,10.5,10.9,16.1c1.7,2.9,3.2,7,2.4,10c-2.3,9.5-5.6,18.8-8.6,28.1c-0.3,0.8-1.6,1.4-2.6,1.7c-1.1,0.3-2.3,0.1-3.5,0.1
	c-132.2,0-264.3,0-396.5,0C25.2,596,23.4,596,21,596z M103.7,247.5c84.1,0,167.6,0,251.1,0c0-59.8,0-119.1,0-178.6
	c-83.8,0-167.4,0-251.1,0C103.7,128.6,103.7,187.8,103.7,247.5z"/>
</svg>
