<?xml version="1.0" encoding="utf-8"?>
<!-- Generator: Adobe Illustrator 18.1.1, SVG Export Plug-In . SVG Version: 6.00 Build 0)  -->
<svg version="1.1" id="Layer_1" xmlns="http://www.w3.org/2000/svg" xmlns:xlink="http://www.w3.org/1999/xlink" x="0px" y="0px"
	 viewBox="0 0 460 516" enable-background="new 0 0 460 516" xml:space="preserve">
<path d="M8.1,345c0-33.8-0.1-67.7,0.1-101.5c0-5.4,0.7-11,1.9-16.3c3.7-16.5,14.6-25.3,31.5-26c2.7-0.1,5.3,0,8-0.1
	c12.4-0.4,19-6.2,20.5-18.7c1.1-9.2,1.2-18.6,2.1-27.9c1.1-11.8,1.9-23.6,4-35.2c3.5-19.7,11.8-27.6,31.6-28
	c21.6-0.4,43.2,0.9,64.8,2.1c9.1,0.5,13.4,6.1,13.6,15.3c0.1,2.5,0,5-0.3,7.5c-1,8.2-6.1,12.8-14.4,12.9c-11.3,0.1-22.7-0.1-34-0.1
	c-3.6,0-7.3,0.3-10.9,0.8c-14.8,2.2-22.2,9.9-22.1,24.7c0,11.3,1.4,22.6,2.7,33.8c0.8,6.6,5.1,10.6,11.8,10.9
	c10.6,0.6,21.4,1.6,31.9,0.3c19.7-2.5,32.5-15.8,43.3-31.1c12-17.1,15-36.9,14.8-57.1c-0.1-26.5-1.3-52.9-1.7-79.4
	c-0.2-9.7,4.4-17.1,13.3-21.1c8.6-3.9,16.9-2.8,24.3,3.2c5.2,4.2,8.1,9.8,8,16.5c-0.5,32.5-0.4,65-1.9,97.4
	c-0.9,20.4,5.7,35.9,22.1,47.9c10.6,7.8,20.5,16.4,31.3,24c9.3,6.5,20,5.7,30.3,2.8c12-3.4,19.4-13.4,20.6-26.7
	c1.2-12.7-1.3-24.9-5.1-36.8c-1.9-6-6.5-9.1-12.6-9.9c-1.8-0.2-3.7-0.2-5.5-0.2c-14.1,0-28.2,0-42.4,0c-6.8,0-12.9-2.1-15.1-9.1
	c-2.5-8-3.3-16.5,3.4-22.9c2.6-2.5,7.2-3.8,10.9-3.9c19.7-0.3,39.3-0.1,59,0c6.2,0,12.3,0.1,18.5,0.4c15.5,0.6,23.4,8.6,23.7,24.2
	c0.2,17.1,0,34.3,0.1,51.4c0,5,0.1,10,1,14.9c1.7,10.1,8,15.9,18.1,17.2c3,0.4,6,0.8,8.9,0.7c23.1-1.4,32.7,14.3,32.9,33.1
	c0.2,18.2,0.4,36.3,0.4,54.5c-0.1,53.5-0.1,107-0.5,160.5c-0.1,6.7-2.5,13.6-4.7,20.1c-2,5.8-5.3,11.1-7.8,16.7
	c-6.5,14.5-18.5,21.2-33.6,22.2c-17.3,1.1-34.6,1.3-51.9,1.4c-64.3,0.3-128.6,0.6-192.9,0.6c-30.5,0-61-0.5-91.4-1
	c-14.1-0.2-28-2.2-37.8-13.7C17,480.3,6.9,463.4,7.8,440.9C9.1,409,8.1,377,8.1,345z M250.7,345c0.1,43.1,33.8,76.2,77.6,76.1
	c42.7-0.1,77.6-34.4,77.5-76.3c-0.1-41.8-36.1-77.8-77.9-77.8C285.6,266.9,250.6,302.3,250.7,345z M132.2,421.1
	c42.8,0.2,76.4-32.7,76.6-74.9c0.2-44-33.2-79-75.6-79.2c-42.7-0.2-78.1,34.6-78.3,76.9C54.6,387.3,88.3,420.9,132.2,421.1z"/>
<path d="M296.8,344.7c0.1-19.4,15.9-33.4,34.9-30.8c0.6,0.1,1.4,0.2,1.9,0.6c8.1,6.9,18.4,8.2,28,11.2c4.3,1.3,8.7,2.6,12.6,4.7
	c11.5,6.2,12.8,18.6,2.8,27c-10.2,8.6-22.6,12.4-35.3,15.3c-4.2,1-8.5,1.7-12.8,2.1C308.6,376.4,296.7,365.1,296.8,344.7z"/>
<path d="M164.4,350.1c-2.3,5.1-3.4,10.7-6.6,14.1c-16.4,17.3-37.7,15.8-52.5-2.1c-4-4.8-5.1-11-3.4-17c3.8-13.6,7.9-27.1,12.2-40.5
	c1-3.1,2.8-6,4.7-8.8c6.2-9,15.6-10.6,23.4-3c4.6,4.5,8.7,10.3,10.8,16.4C157.5,322.4,160.6,336.2,164.4,350.1z"/>
</svg>
